<svg xmlns="http://www.w3.org/2000/svg" width="420" height="300" viewBox="0 0 420 300" font-family="-apple-system, Helvetica, Arial, sans-serif" font-size="12">
  <defs>
    <filter id="s" x="-10%" y="-10%" width="120%" height="130%"><feDropShadow dx="0" dy="10" stdDeviation="12" flood-opacity="0.18"/></filter>
  </defs>
  <rect x="30" y="20" width="360" height="256" rx="14" fill="#ffffff" stroke="#e4e4e2" filter="url(#s)"/>
  <text x="46" y="45" font-weight="600" fill="#16181d">Lokal <tspan fill="#7a7f89" font-weight="400">5 ports</tspan></text>
  <line x1="30" y1="56" x2="390" y2="56" stroke="#ececea"/>
  <text x="46" y="76" font-weight="600" fill="#7a7f89" font-size="11">▸ shop</text>
  <g fill="#16181d">
    <text x="46" y="98" fill="#0b6bcb">⚡</text><text x="70" y="96" font-weight="500">Vite <tspan font-size="9" fill="#7a7f89">web</tspan></text><text x="70" y="110" fill="#7a7f89" font-size="10.5">node · PID 48211</text><text x="330" y="100" fill="#7a7f89" font-family="Menlo, monospace" font-size="11">:5173</text><text x="372" y="101" fill="#b9bcc4">⊗</text>
    <text x="46" y="130" fill="#0b6bcb">◆</text><text x="70" y="128" font-weight="500">Rails <tspan font-size="9" fill="#7a7f89">api</tspan></text><text x="70" y="142" fill="#7a7f89" font-size="10.5">puma · PID 48090</text><text x="300" y="132" fill="#7a7f89" font-family="Menlo, monospace" font-size="11">:3000</text>
    <rect x="336" y="120" width="46" height="20" rx="10" fill="#d9363e"/><text x="345" y="134" fill="#fff" font-weight="600" font-size="11">Kill</text><text x="371" y="134" fill="#fff" font-weight="700" font-size="11">×</text><rect x="336" y="138" width="28" height="2" fill="#fff" opacity="0.8"/>
  </g>
  <text x="46" y="166" font-weight="600" fill="#7a7f89" font-size="11">▸ Containers</text>
  <text x="46" y="188" fill="#0b6bcb">▣</text><text x="70" y="186" font-weight="500" fill="#16181d">shop-db</text><text x="70" y="200" fill="#7a7f89" font-size="10.5">com.docker.backend · postgres:16</text><text x="330" y="190" fill="#7a7f89" font-family="Menlo, monospace" font-size="11">:5433</text><text x="372" y="191" fill="#b9bcc4">⊗</text>
  <text x="46" y="224" font-weight="600" fill="#7a7f89" font-size="11">▸ Services</text>
  <text x="46" y="246" fill="#0b6bcb">◍</text><text x="70" y="244" font-weight="500" fill="#16181d">Postgres</text><text x="70" y="258" fill="#7a7f89" font-size="10.5">postgres · PID 812</text><text x="330" y="248" fill="#7a7f89" font-family="Menlo, monospace" font-size="11">:5432</text><text x="372" y="249" fill="#b9bcc4">⊗</text>
</svg>
